<?xml version="1.0" encoding="UTF-8"?>
<svg id="Layer_1" data-name="Layer 1" xmlns="http://www.w3.org/2000/svg" viewBox="0 0 16 16">
  <defs>
    <style>
      .cls-1 {
        fill: #fff;
      }

      .cls-2 {
        fill: #0091d5;
      }
    </style>
  </defs>
  <rect class="cls-2" width="16" height="16" rx="3.34" ry="3.34"/>
  <g>
    <path class="cls-1" d="m7.48,6.53h.94v5.02h.07c.56,0,1.11,0,1.67,0,.22,0,.37.14.37.37,0,.11,0,.22,0,.33,0,.02,0,.04,0,.06.02,0,.04,0,.06,0,.21,0,.42,0,.62,0,.4,0,.72.32.72.72,0,.08,0,.17,0,.25H3.97c-.06-.46.11-.87.61-.96.04,0,.08,0,.12,0,.18,0,.36,0,.55,0,0-.02,0-.04,0-.06,0-.12,0-.24,0-.36,0-.2.15-.35.35-.35.6,0,1.21,0,1.81,0h.07v-5.02Z"/>
    <path class="cls-1" d="m9.58,8.05h4.45c-.02.74-.31,1.36-.92,1.78-.75.53-1.56.59-2.37.15-.76-.41-1.12-1.08-1.16-1.94Z"/>
    <path class="cls-1" d="m6.17,8.05c-.03.81-.36,1.45-1.05,1.87-.77.48-1.58.48-2.35,0-.69-.42-1.02-1.06-1.05-1.87h4.44Z"/>
    <path class="cls-1" d="m4.57,4.94v-.5s.05,0,.08,0c.66,0,1.32,0,1.98,0,.06,0,.08-.01.09-.07.11-.57.62-.97,1.2-.96.56.01,1.04.42,1.14.97,0,.05.03.05.07.05.66,0,1.32,0,1.98,0,.02,0,.05,0,.08,0,0,.1,0,.19,0,.28,0,.06,0,.11,0,.17,0,.04-.01.05-.05.05-.01,0-.03,0-.04,0-.66,0-1.33,0-1.99,0-.05,0-.07.01-.09.06-.16.48-.62.81-1.13.81-.51,0-.98-.33-1.14-.82-.01-.04-.03-.05-.07-.05-.68,0-1.35,0-2.03,0-.03,0-.05,0-.08,0Zm3.89-.33c0-.32-.26-.58-.57-.57-.31,0-.57.26-.57.57,0,.32.25.57.57.57.32,0,.57-.25.57-.57Z"/>
    <path class="cls-1" d="m3.97,5.41c-.33.81-.66,1.61-.99,2.41-.16-.06-.31-.13-.46-.19.08-.19.15-.37.23-.56.29-.71.58-1.41.87-2.12,0-.02,0-.06,0-.08-.08-.16-.04-.36.1-.47.14-.11.33-.12.47-.02.14.1.2.29.13.46,0,.02,0,.06,0,.08.31.78.62,1.57.93,2.35.05.12.09.24.14.36-.15.06-.31.12-.47.18-.32-.8-.64-1.6-.96-2.41Z"/>
    <path class="cls-1" d="m10.36,7.63c.09-.21.17-.42.26-.63.28-.68.56-1.37.84-2.05,0-.02,0-.05,0-.08-.08-.17-.04-.36.09-.47.14-.12.33-.12.47-.02.15.1.2.29.14.46,0,.03,0,.07,0,.09.35.88.7,1.76,1.05,2.64,0,.02.01.03.02.06-.16.06-.31.12-.46.18-.32-.8-.64-1.6-.96-2.41-.33.81-.66,1.61-.99,2.41-.16-.06-.31-.13-.46-.19Z"/>
  </g>
</svg>