<svg width="40" height="40" viewBox="0 0 40 40" fill="none" xmlns="http://www.w3.org/2000/svg">
<g clip-path="url(#clip0_71_2426)">
<path fill-rule="evenodd" clip-rule="evenodd" d="M20 37.5C24.6413 37.5 29.0925 35.6563 32.3744 32.3744C35.6563 29.0925 37.5 24.6413 37.5 20C37.5 15.3587 35.6563 10.9075 32.3744 7.62563C29.0925 4.34374 24.6413 2.5 20 2.5C15.3587 2.5 10.9075 4.34375 7.62563 7.62563C4.34374 10.9075 2.5 15.3587 2.5 20C2.5 24.6413 4.34374 29.0925 7.62563 32.3744C10.9075 35.6563 15.3587 37.5 20 37.5ZM20 -8.74228e-07C25.3043 -1.10609e-06 30.3914 2.10713 34.1421 5.85786C37.8929 9.60859 40 14.6957 40 20C40 25.3043 37.8929 30.3914 34.1421 34.1421C30.3914 37.8929 25.3043 40 20 40C14.6957 40 9.60859 37.8929 5.85786 34.1421C2.10714 30.3914 -6.42368e-07 25.3043 -8.74228e-07 20C-1.10609e-06 14.6957 2.10714 9.60859 5.85786 5.85786C9.60859 2.10714 14.6957 -6.42368e-07 20 -8.74228e-07ZM11.25 18.75C10.9185 18.75 10.6005 18.8817 10.3661 19.1161C10.1317 19.3505 10 19.6685 10 20C10 20.3315 10.1317 20.6495 10.3661 20.8839C10.6005 21.1183 10.9185 21.25 11.25 21.25L25.7325 21.25L20.365 26.615C20.1303 26.8497 19.9984 27.1681 19.9984 27.5C19.9984 27.8319 20.1303 28.1503 20.365 28.385C20.5997 28.6197 20.9181 28.7516 21.25 28.7516C21.5819 28.7516 21.9003 28.6197 22.135 28.385L29.635 20.885C29.7514 20.7689 29.8438 20.6309 29.9068 20.4791C29.9698 20.3272 30.0022 20.1644 30.0022 20C30.0022 19.8356 29.9698 19.6728 29.9068 19.5209C29.8438 19.3691 29.7514 19.2311 29.635 19.115L22.135 11.615C21.9003 11.3803 21.5819 11.2484 21.25 11.2484C20.9181 11.2484 20.5997 11.3803 20.365 11.615C20.1303 11.8497 19.9984 12.1681 19.9984 12.5C19.9984 12.8319 20.1303 13.1503 20.365 13.385L25.7325 18.75L11.25 18.75Z" fill="#363636"/>
</g>
<defs>
<clipPath id="clip0_71_2426">
<rect width="40" height="40" fill="white" transform="translate(0 40) rotate(-90)"/>
</clipPath>
</defs>
</svg>
