<?xml version="1.0" encoding="utf-8"?>
<svg xmlns="http://www.w3.org/2000/svg" style="margin: auto; background: none; display: block; shape-rendering: auto;" width="173" height="34" preserveAspectRatio="xMidYMid">
<style type="text/css">
  text {
    text-anchor: middle; font-size: 40px; opacity: 0;
  }
</style>
<g style="transform-origin: 86.5px 17px; transform: scale(0.5);">
<g transform="translate(86.5,17)">
  <g transform="translate(0,0)"><g className="path" style="transform: matrix(1, 0, 0, 1, 0, 0); transform-origin: -100.24px -1.23909px; animation: 0.5s linear -0.282857s infinite normal forwards running tremble-42443314-bd7a-4070-add8-d6b06854e373;"><path d="M16.80-10.88L16.80-10.88L16.80-10.88Q16.80 1.12 24.56 4.96L24.56 4.96L24.56 4.96Q26.48 5.20 29.64 5.20L29.64 5.20L29.64 5.20Q32.80 5.20 36.32 4L36.32 4L36.32 4Q39.84 2.80 41.76 1.04L41.76 1.04L41.76 1.04Q45.84-2.72 46.88-5.44L46.88-5.44L47.28-6.64L48.88-6L48.88-6Q48.32-4.16 46.72-1.76L46.72-1.76L46.72-1.76Q45.12 0.64 43.08 2.32L43.08 2.32L43.08 2.32Q41.04 4 37.16 5.40L37.16 5.40L37.16 5.40Q33.28 6.80 28.56 6.80L28.56 6.80L28.56 6.80Q18.48 6.80 12.92 0.96L12.92 0.96L12.92 0.96Q7.36-4.88 7.36-15.52L7.36-15.52L7.36-15.52Q7.36-30 16.72-39.36L16.72-39.36L16.72-39.36Q26.08-48.72 41.28-48.72L41.28-48.72L41.28-48.72Q48.32-48.72 51.44-46.20L51.44-46.20L51.44-46.20Q54.56-43.68 54.56-38.32L54.56-38.32L54.56-38.32Q54.56-34.72 51.04-29.44L51.04-29.44L51.04-29.44Q47.84-24.32 47.84-21.44L47.84-21.44L46.08-21.44L46.08-21.44Q46.08-23.04 46.72-24.88L46.72-24.88L46.72-24.88Q47.36-26.72 47.84-27.52L47.84-27.52L47.84-27.52Q48.32-28.32 49.60-30.40L49.60-30.40L49.60-30.40Q52.72-35.12 52.72-38.16L52.72-38.16L52.72-38.16Q52.72-44.56 47.44-46.24L47.44-46.24L47.44-46.24Q44.96-47.04 42.24-47.04L42.24-47.04L42.24-47.04Q39.52-47.04 36.48-46.72L36.48-46.72L36.48-46.72Q33.68-45.84 31.16-44.44L31.16-44.44L31.16-44.44Q28.64-43.04 25.92-40.20L25.92-40.20L25.92-40.20Q23.20-37.36 21.28-33.60L21.28-33.60L21.28-33.60Q19.36-29.84 18.08-23.96L18.08-23.96L18.08-23.96Q16.80-18.08 16.80-10.88" fill="var(--white)fff" stroke="none" stroke-width="none" transform="translate(-131.20001220703125,19.72091504778181)" style="fill: rgb(255, 255, 255);"></path></g><g className="path" style="transform: matrix(1, 0, 0, 1, 0, 0); transform-origin: -59.28px 4.52091px; animation: 0.5s linear -0.235714s infinite normal forwards running tremble-42443314-bd7a-4070-add8-d6b06854e373;"><path d="M68.80 0.72L68.80 0.72Q62.64 0.72 59.44-2.36L59.44-2.36L59.44-2.36Q56.24-5.44 56.24-10.12L56.24-10.12L56.24-10.12Q56.24-14.80 57.08-18.12L57.08-18.12L57.08-18.12Q57.92-21.44 59.84-24.52L59.84-24.52L59.84-24.52Q61.76-27.60 65.64-29.36L65.64-29.36L65.64-29.36Q69.52-31.12 75.32-31.12L75.32-31.12L75.32-31.12Q81.12-31.12 84.36-28.04L84.36-28.04L84.36-28.04Q87.60-24.96 87.60-19.60L87.60-19.60L87.60-19.60Q87.60-10.48 82.76-4.88L82.76-4.88L82.76-4.88Q77.92 0.72 68.80 0.72L68.80 0.72zM65.28-7.52L65.28-7.52L65.28-7.52Q65.28-1.12 69-1.12L69-1.12L69-1.12Q72.72-1.12 75.64-7.56L75.64-7.56L75.64-7.56Q78.56-14 78.56-22.88L78.56-22.88L78.56-22.88Q78.56-29.60 74.92-29.60L74.92-29.60L74.92-29.60Q71.28-29.60 68.28-23.48L68.28-23.48L68.28-23.48Q65.28-17.36 65.28-7.52" fill="var(--white)fff" stroke="none" stroke-width="none" transform="translate(-131.20001220703125,19.72091504778181)" style="fill: rgb(255, 255, 255);"></path></g><g className="path" style="transform: matrix(1, 0, 0, 1, 0, 0); transform-origin: -22.04px 4.52091px; animation: 0.5s linear -0.188571s infinite normal forwards running tremble-42443314-bd7a-4070-add8-d6b06854e373;"><path d="M96.48-29.52L96.48-29.52L96.48-29.52Q94.56-29.52 92.48-27.28L92.48-27.28L91.28-28.24L91.28-28.24Q91.84-29.36 93.76-30.24L93.76-30.24L93.76-30.24Q95.68-31.12 98.00-31.12L98.00-31.12L98.00-31.12Q105.28-31.12 105.28-24.56L105.28-24.56L105.28-24.56Q105.28-21.76 103.84-14.56L103.84-14.56L103.84-14.56Q102.40-7.36 102.40-5.12L102.40-5.12L102.40-5.12Q102.40-1.68 105.68-1.68L105.68-1.68L105.68-1.68Q108.00-1.68 110.20-4.40L110.20-4.40L110.20-4.40Q112.40-7.12 114.00-11.92L114.00-11.92L117.36-30.40L117.36-30.40Q123.28-30.40 126.00-30.88L126.00-30.88L127.04-31.12L121.68-0.88L121.68-0.88Q124.08-1.12 125.68-3.12L125.68-3.12L126.88-2.16L126.88-2.16Q124.48 0.72 120.88 0.72L120.88 0.72L120.88 0.72Q117.28 0.72 115.28-1.04L115.28-1.04L115.28-1.04Q113.28-2.80 113.20-6L113.20-6L113.20-6Q109.84 0.72 103.28 0.72L103.28 0.72L103.28 0.72Q98.56 0.72 95.92-1.96L95.92-1.96L95.92-1.96Q93.28-4.64 93.28-9.36L93.28-9.36L93.28-9.36Q93.28-11.84 94.80-18.92L94.80-18.92L94.80-18.92Q96.32-26 96.48-29.52" fill="var(--white)fff" stroke="none" stroke-width="none" transform="translate(-131.20001220703125,19.72091504778181)" style="fill: rgb(255, 255, 255);"></path></g><g className="path" style="transform: matrix(1, 0, 0, 1, 0, 0); transform-origin: 16.56px 9.80091px; animation: 0.5s linear -0.141429s infinite normal forwards running tremble-42443314-bd7a-4070-add8-d6b06854e373;"><path d="M147.44 0.64L147.44 0.64L147.44 0.64Q143.76 0.64 141.60-1.04L141.60-1.04L139.20 11.84L129.68 11.84L137.20-30.08L137.20-30.08Q134.80-29.84 133.20-27.84L133.20-27.84L132-28.80L132-28.80Q134.40-31.68 137.96-31.68L137.96-31.68L137.96-31.68Q141.52-31.68 143.52-29.96L143.52-29.96L143.52-29.96Q145.52-28.24 145.68-25.12L145.68-25.12L145.68-25.12Q149.20-31.12 154.64-31.12L154.64-31.12L154.64-31.12Q160.08-31.12 162.96-28.04L162.96-28.04L162.96-28.04Q165.84-24.96 165.84-19.60L165.84-19.60L165.84-19.60Q165.84-10.16 160.72-4.76L160.72-4.76L160.72-4.76Q155.60 0.64 147.44 0.64zM145.04-19.92L142.16-4.24L142.16-4.24Q143.52-1.20 147.32-1.20L147.32-1.20L147.32-1.20Q151.12-1.20 153.96-7.60L153.96-7.60L153.96-7.60Q156.80-14 156.80-22.88L156.80-22.88L156.80-22.88Q156.80-26.56 156.04-27.92L156.04-27.92L156.04-27.92Q155.28-29.28 153.28-29.28L153.28-29.28L153.28-29.28Q151.28-29.28 149.16-26.88L149.16-26.88L149.16-26.88Q147.04-24.48 146.08-22.36L146.08-22.36L146.08-22.36Q145.12-20.24 145.12-19.92L145.12-19.92L145.04-19.92" fill="var(--white)fff" stroke="none" stroke-width="none" transform="translate(-131.20001220703125,19.72091504778181)" style="fill: rgb(255, 255, 255);"></path></g><g className="path" style="transform: matrix(1, 0, 0, 1, 0, 0); transform-origin: 54.24px 4.52091px; animation: 0.5s linear -0.0942857s infinite normal forwards running tremble-42443314-bd7a-4070-add8-d6b06854e373;"><path d="M182.32 0.72L182.32 0.72Q176.16 0.72 172.96-2.36L172.96-2.36L172.96-2.36Q169.76-5.44 169.76-10.12L169.76-10.12L169.76-10.12Q169.76-14.80 170.60-18.12L170.60-18.12L170.60-18.12Q171.44-21.44 173.36-24.52L173.36-24.52L173.36-24.52Q175.28-27.60 179.16-29.36L179.16-29.36L179.16-29.36Q183.04-31.12 188.84-31.12L188.84-31.12L188.84-31.12Q194.64-31.12 197.88-28.04L197.88-28.04L197.88-28.04Q201.12-24.96 201.12-19.60L201.12-19.60L201.12-19.60Q201.12-10.48 196.28-4.88L196.28-4.88L196.28-4.88Q191.44 0.72 182.32 0.72L182.32 0.72zM178.80-7.52L178.80-7.52L178.80-7.52Q178.80-1.12 182.52-1.12L182.52-1.12L182.52-1.12Q186.24-1.12 189.16-7.56L189.16-7.56L189.16-7.56Q192.08-14 192.08-22.88L192.08-22.88L192.08-22.88Q192.08-29.60 188.44-29.60L188.44-29.60L188.44-29.60Q184.80-29.60 181.80-23.48L181.80-23.48L181.80-23.48Q178.80-17.36 178.80-7.52" fill="var(--white)fff" stroke="none" stroke-width="none" transform="translate(-131.20001220703125,19.72091504778181)" style="fill: rgb(255, 255, 255);"></path></g><g className="path" style="transform: matrix(1, 0, 0, 1, 0, 0); transform-origin: 92.04px 4.52091px; animation: 0.5s linear -0.0471429s infinite normal forwards running tremble-42443314-bd7a-4070-add8-d6b06854e373;"><path d="M236.00-0.88L236.00-0.88L236.00-0.88Q237.92-0.88 240.00-3.12L240.00-3.12L241.20-2.16L241.20-2.16Q240.64-1.04 238.72-0.16L238.72-0.16L238.72-0.16Q236.80 0.72 234.48 0.72L234.48 0.72L234.48 0.72Q227.20 0.72 227.20-5.84L227.20-5.84L227.20-5.84Q227.20-8.64 228.64-15.84L228.64-15.84L228.64-15.84Q230.08-23.04 230.08-25.28L230.08-25.28L230.08-25.28Q230.08-28.72 226.80-28.72L226.80-28.72L226.80-28.72Q224.16-28.72 221.72-25.28L221.72-25.28L221.72-25.28Q219.28-21.84 217.68-15.84L217.68-15.84L214.96-0.88L214.96-0.88Q217.44-1.12 219.04-3.12L219.04-3.12L220.24-2.16L220.24-2.16Q217.84 0.72 214.24 0.72L214.24 0.72L214.24 0.72Q210.64 0.72 208.60-1.12L208.60-1.12L208.60-1.12Q206.56-2.96 206.56-5.92L206.56-5.92L206.56-5.92Q206.56-7.04 207.84-14.72L207.84-14.72L210.48-29.52L210.48-29.52Q208.08-29.28 206.48-27.28L206.48-27.28L205.28-28.24L205.28-28.24Q207.68-31.12 211.32-31.12L211.32-31.12L211.32-31.12Q214.96-31.12 216.96-29.28L216.96-29.28L216.96-29.28Q218.96-27.44 218.96-24.08L218.96-24.08L218.96-23.60L218.96-23.60Q222.24-31.12 229.20-31.12L229.20-31.12L229.20-31.12Q233.92-31.12 236.56-28.44L236.56-28.44L236.56-28.44Q239.20-25.76 239.20-21.04L239.20-21.04L239.20-21.04Q239.20-18.56 237.68-11.48L237.68-11.48L237.68-11.48Q236.16-4.40 236.00-0.88" fill="var(--white)fff" stroke="none" stroke-width="none" transform="translate(-131.20001220703125,19.72091504778181)" style="fill: rgb(255, 255, 255);"></path></g><g className="path" style="transform: matrix(1, 0, 0, 1, 0, 0); transform-origin: 125.2px 2.68092px; animation: 0.5s linear 0s infinite normal forwards running tremble-42443314-bd7a-4070-add8-d6b06854e373;"><path d="M252.48-1.36L252.48-1.36L252.48-1.36Q260.40-1.36 260.40-13.04L260.40-13.04L260.40-13.04Q260.40-15.92 259.56-19.84L259.56-19.84L259.56-19.84Q258.72-23.76 258.56-24.72L258.56-24.72L258.56-24.72Q253.68-19.68 247.60-18.64L247.60-18.64L247.60-20.56L247.60-20.56Q253.36-21.84 258.40-27.12L258.40-27.12L258.40-27.44L258.40-27.44Q258.40-29.36 258.96-31.20L258.96-31.20L258.96-31.20Q259.52-33.04 260.08-33.92L260.08-33.92L260.64-34.80L262.56-34.80L262.56-34.80Q262.56-31.28 263.68-28.36L263.68-28.36L263.68-28.36Q264.80-25.44 266.16-23.64L266.16-23.64L266.16-23.64Q267.52-21.84 268.64-18.92L268.64-18.92L268.64-18.92Q269.76-16 269.76-12.48L269.76-12.48L269.76-12.48Q269.76-6.80 265.48-3.04L265.48-3.04L265.48-3.04Q261.20 0.72 255.20 0.72L255.20 0.72L255.20 0.72Q249.20 0.72 246.12-2L246.12-2L246.12-2Q243.04-4.72 243.04-8.28L243.04-8.28L243.04-8.28Q243.04-11.84 244.80-13.40L244.80-13.40L244.80-13.40Q246.56-14.96 248.96-14.96L248.96-14.96L248.96-14.96Q251.36-14.96 252.92-13.40L252.92-13.40L252.92-13.40Q254.48-11.84 254.48-9.40L254.48-9.40L254.48-9.40Q254.48-6.96 252.96-5.28L252.96-5.28L252.96-5.28Q251.44-3.60 249.04-3.60L249.04-3.60L249.04-3.60Q248-3.60 246.88-3.92L246.88-3.92L246.88-3.92Q248.64-1.36 252.48-1.36" fill="var(--white)fff" stroke="none" stroke-width="none" transform="translate(-131.20001220703125,19.72091504778181)" style="fill: rgb(255, 255, 255);"></path></g></g>
</g>
</g>
<style id="tremble-42443314-bd7a-4070-add8-d6b06854e373" data-anikit="">@keyframes tremble-42443314-bd7a-4070-add8-d6b06854e373 {
  0% { transform: translate(0px,0px) rotate(0deg) scale(1) }
  3.33333% { transform: translate(-0.18923px,1.45485px) rotate(0deg) scale(1) }
  6.66667% { transform: translate(-0.84296px,-1.32524px) rotate(0deg) scale(1) }
  10% { transform: translate(0.67971px,1.00422px) rotate(0deg) scale(1) }
  13.33333% { transform: translate(-0.5056px,0.83616px) rotate(0deg) scale(1) }
  16.66667% { transform: translate(1.31368px,-0.51401px) rotate(0deg) scale(1) }
  20% { transform: translate(-1.21184px,1.49193px) rotate(0deg) scale(1) }
  23.33333% { transform: translate(1.09065px,-0.21259px) rotate(0deg) scale(1) }
  26.66667% { transform: translate(-1.49916px,0.56159px) rotate(0deg) scale(1) }
  30% { transform: translate(1.48086px,1.21228px) rotate(0deg) scale(1) }
  33.33333% { transform: translate(-1.43889px,-1.152px) rotate(0deg) scale(1) }
  36.66667% { transform: translate(1.35914px,1.34835px) rotate(0deg) scale(1) }
  40% { transform: translate(-1.42834px,0.3091px) rotate(0deg) scale(1) }
  43.33333% { transform: translate(1.47472px,-1.49889px) rotate(0deg) scale(1) }
  46.66667% { transform: translate(-0.92402px,1.4416px) rotate(0deg) scale(1) }
  50% { transform: translate(1.0657px,-0.75306px) rotate(0deg) scale(1) }
  53.33333% { transform: translate(-1.19035px,-1.07484px) rotate(0deg) scale(1) }
  56.66667% { transform: translate(0.28828px,0.79337px) rotate(0deg) scale(1) }
  60% { transform: translate(-0.47167px,-1.42789px) rotate(0deg) scale(1) }
  63.33333% { transform: translate(0.64753px,-0.09795px) rotate(0deg) scale(1) }
  66.66667% { transform: translate(0.41006px,-0.26292px) rotate(0deg) scale(1) }
  70% { transform: translate(-0.22477px,-1.3683px) rotate(0deg) scale(1) }
  73.33333% { transform: translate(0.03588px,0.92931px) rotate(0deg) scale(1) }
  76.66667% { transform: translate(-1.01937px,-1.18398px) rotate(0deg) scale(1) }
  80% { transform: translate(0.8724px,-0.60494px) rotate(0deg) scale(1) }
  83.33333% { transform: translate(-0.71151px,1.4786px) rotate(0deg) scale(1) }
  86.66667% { transform: translate(1.40734px,-1.49607px) rotate(0deg) scale(1) }
  90% { transform: translate(-1.33062px,0.46957px) rotate(0deg) scale(1) }
  93.33333% { transform: translate(1.23264px,1.26738px) rotate(0deg) scale(1) }
  96.66667% { transform: translate(-1.48975px,-1.03867px) rotate(0deg) scale(1) }
  100% { transform: translate(0,0) rotate(0) scale(1) }
}</style></svg>